ply
format ascii 1.0
comment VCGLIB generated
element vertex 156
property float x
property float y
property float z
property uchar red
property uchar green
property uchar blue
element face 103
property list int int vertex_indices
end_header
-0.05 472.60 5.14 255 0 0
-0.05 472.60 5.14 255 0 0
-0.32 472.62 5.02 255 0 0
-0.49 472.82 4.97 255 0 0
-0.49 472.82 4.97 255 0 0
-0.79 472.97 4.78 255 0 0
-1.07 473.28 4.54 255 0 0
-1.07 473.28 4.54 255 0 0
-1.39 473.45 4.45 255 0 0
-1.72 473.51 4.32 255 0 0
-1.72 473.51 4.32 255 0 0
-2.03 473.49 4.17 255 0 0
-2.28 473.65 4.08 255 0 0
-2.28 473.65 4.08 255 0 0
-2.68 473.95 3.91 255 0 0
-3.24 474.12 3.91 255 0 0
-3.24 474.12 3.91 255 0 0
-3.67 474.41 3.80 255 0 0
-3.95 474.71 3.73 255 0 0
-3.95 474.71 3.73 255 0 0
-4.36 474.81 3.66 255 0 0
-4.81 474.94 3.61 255 0 0
-4.81 474.94 3.61 255 0 0
-5.28 475.11 3.53 255 0 0
-5.82 475.11 3.42 255 0 0
-5.82 475.11 3.42 255 0 0
-6.31 475.08 3.29 255 0 0
-6.86 474.98 3.13 255 0 0
-6.86 474.98 3.13 255 0 0
-7.53 475.02 3.19 255 0 0
-8.19 474.74 3.11 255 0 0
-8.19 474.74 3.11 255 0 0
-8.79 474.81 3.20 255 0 0
-9.28 474.65 3.32 255 0 0
-9.28 474.65 3.32 255 0 0
-9.75 474.68 3.54 255 0 0
-10.07 474.71 3.61 255 0 0
-10.07 474.71 3.61 255 0 0
-10.44 474.52 3.63 255 0 0
-10.98 474.40 3.59 255 0 0
-10.98 474.40 3.59 255 0 0
-11.34 474.04 3.92 255 0 0
-11.70 473.90 4.20 255 0 0
-11.70 473.90 4.20 255 0 0
-11.92 473.87 4.36 255 0 0
-12.14 473.80 4.40 255 0 0
-12.14 473.80 4.40 255 0 0
-12.43 473.75 4.45 255 0 0
-12.72 473.71 4.55 255 0 0
-12.72 473.71 4.55 255 0 0
-13.03 473.68 4.58 255 0 0
-13.26 473.58 4.70 255 0 0
-13.26 473.58 4.70 255 0 0
-13.42 473.38 4.81 255 0 0
-13.70 473.23 4.88 255 0 0
-13.70 473.23 4.88 255 0 0
-13.87 473.10 5.02 255 0 0
-14.07 473.14 5.13 255 0 0
-14.07 473.14 5.13 255 0 0
-14.21 472.96 5.13 255 0 0
-14.49 472.92 5.05 255 0 0
-14.49 472.92 5.05 255 0 0
-14.84 472.88 5.06 255 0 0
-15.15 472.89 5.07 255 0 0
-15.15 472.89 5.07 255 0 0
-15.45 472.89 5.07 255 0 0
-15.73 472.84 5.16 255 0 0
-15.73 472.84 5.16 255 0 0
-16.01 472.76 5.18 255 0 0
-16.29 472.69 5.08 255 0 0
-16.29 472.69 5.08 255 0 0
-16.61 472.57 5.08 255 0 0
-16.92 472.61 5.09 255 0 0
-16.92 472.61 5.09 255 0 0
-17.17 472.51 5.00 255 0 0
-17.45 472.35 4.84 255 0 0
-17.45 472.35 4.84 255 0 0
-17.74 472.43 4.69 255 0 0
-18.04 472.45 4.57 255 0 0
-18.04 472.45 4.57 255 0 0
-18.42 472.50 4.49 255 0 0
-18.82 472.41 4.54 255 0 0
-18.82 472.41 4.54 255 0 0
-19.21 472.37 4.60 255 0 0
-19.62 472.30 4.56 255 0 0
-19.62 472.30 4.56 255 0 0
-19.99 472.20 4.49 255 0 0
-20.24 472.15 4.44 255 0 0
-20.24 472.15 4.44 255 0 0
-20.53 472.14 4.36 255 0 0
-21.05 472.26 4.29 255 0 0
-21.05 472.26 4.29 255 0 0
-21.50 472.15 4.26 255 0 0
-22.03 472.13 4.20 255 0 0
-22.03 472.13 4.20 255 0 0
-22.67 472.07 4.07 255 0 0
-23.19 472.06 3.99 255 0 0
-23.19 472.06 3.99 255 0 0
-23.67 472.04 3.96 255 0 0
-24.15 472.01 3.95 255 0 0
-24.15 472.01 3.95 255 0 0
-24.59 472.03 3.95 255 0 0
-24.96 471.75 3.96 255 0 0
-24.96 471.75 3.96 255 0 0
-25.35 471.39 4.00 255 0 0
-25.90 471.45 3.98 255 0 0
-25.90 471.45 3.98 255 0 0
-26.38 471.32 3.93 255 0 0
-26.75 471.15 3.81 255 0 0
-26.75 471.15 3.81 255 0 0
-27.25 470.77 3.59 255 0 0
-27.76 470.60 3.62 255 0 0
-27.76 470.60 3.62 255 0 0
-28.12 470.55 3.65 255 0 0
-28.47 470.51 3.63 255 0 0
-28.47 470.51 3.63 255 0 0
-28.84 470.37 3.66 255 0 0
-29.27 470.31 3.63 255 0 0
-29.27 470.31 3.63 255 0 0
-29.58 470.02 3.83 255 0 0
-29.93 469.83 3.98 255 0 0
-29.93 469.83 3.98 255 0 0
-30.14 469.65 4.13 255 0 0
-30.44 469.55 4.11 255 0 0
-30.44 469.55 4.11 255 0 0
-30.79 469.57 4.05 255 0 0
-31.11 469.32 4.17 255 0 0
-31.11 469.32 4.17 255 0 0
-31.50 469.18 4.25 255 0 0
-31.90 469.07 4.34 255 0 0
-31.90 469.07 4.34 255 0 0
-32.22 468.77 4.58 255 0 0
-32.55 468.81 4.57 255 0 0
-32.55 468.81 4.57 255 0 0
-32.89 468.79 4.60 255 0 0
-33.25 468.71 4.67 255 0 0
-33.25 468.71 4.67 255 0 0
-33.59 468.58 4.71 255 0 0
-33.89 468.42 4.74 255 0 0
-33.89 468.42 4.74 255 0 0
-34.19 468.23 4.79 255 0 0
-34.51 468.05 4.86 255 0 0
-34.51 468.05 4.86 255 0 0
-34.84 467.85 4.91 255 0 0
-35.22 467.54 4.96 255 0 0
-35.22 467.54 4.96 255 0 0
-35.68 467.44 4.92 255 0 0
-35.99 467.14 4.89 255 0 0
-35.99 467.14 4.89 255 0 0
-36.38 467.12 4.85 255 0 0
-36.72 466.85 4.72 255 0 0
-36.72 466.85 4.72 255 0 0
-37.27 466.73 4.62 255 0 0
-37.76 466.60 4.53 255 0 0
-37.76 466.60 4.53 255 0 0
-38.24 466.23 4.32 255 0 0
3 2 1 0
3 4 3 2
3 5 4 3
3 7 6 5
3 8 7 6
3 10 9 8
3 11 10 9
3 13 12 11
3 14 13 12
3 16 15 14
3 17 16 15
3 19 18 17
3 20 19 18
3 22 21 20
3 23 22 21
3 25 24 23
3 26 25 24
3 28 27 26
3 29 28 27
3 31 30 29
3 32 31 30
3 34 33 32
3 35 34 33
3 37 36 35
3 38 37 36
3 40 39 38
3 41 40 39
3 43 42 41
3 44 43 42
3 46 45 44
3 47 46 45
3 49 48 47
3 50 49 48
3 52 51 50
3 53 52 51
3 55 54 53
3 56 55 54
3 58 57 56
3 59 58 57
3 61 60 59
3 62 61 60
3 64 63 62
3 65 64 63
3 67 66 65
3 68 67 66
3 70 69 68
3 71 70 69
3 73 72 71
3 74 73 72
3 76 75 74
3 77 76 75
3 79 78 77
3 80 79 78
3 82 81 80
3 83 82 81
3 85 84 83
3 86 85 84
3 88 87 86
3 89 88 87
3 91 90 89
3 92 91 90
3 94 93 92
3 95 94 93
3 97 96 95
3 98 97 96
3 100 99 98
3 101 100 99
3 103 102 101
3 104 103 102
3 106 105 104
3 107 106 105
3 109 108 107
3 110 109 108
3 112 111 110
3 113 112 111
3 115 114 113
3 116 115 114
3 118 117 116
3 119 118 117
3 121 120 119
3 122 121 120
3 124 123 122
3 125 124 123
3 127 126 125
3 128 127 126
3 130 129 128
3 131 130 129
3 133 132 131
3 134 133 132
3 136 135 134
3 137 136 135
3 139 138 137
3 140 139 138
3 142 141 140
3 143 142 141
3 145 144 143
3 146 145 144
3 148 147 146
3 149 148 147
3 151 150 149
3 152 151 150
3 154 153 152
3 155 154 153
